<svg width="25" height="24" viewBox="0 0 25 24" fill="none" xmlns="http://www.w3.org/2000/svg">
<path d="M21.7449 10.2614L13.587 10.261C13.2268 10.261 12.9348 10.5529 12.9348 10.9132V13.5192C12.9348 13.8794 13.2268 14.1714 13.587 14.1714H18.181C17.6779 15.4769 16.739 16.5702 15.5411 17.2649L17.5 20.6559C20.6423 18.8386 22.5 15.65 22.5 12.0805C22.5 11.5723 22.4625 11.209 22.3876 10.7999C22.3307 10.489 22.0608 10.2614 21.7449 10.2614Z" fill="#167EE6"/>
<path d="M12.5001 18.0871C10.2518 18.0871 8.2892 16.8587 7.23509 15.041L3.84424 16.9955C5.56982 19.9862 8.8024 22.0001 12.5001 22.0001C14.314 22.0001 16.0256 21.5117 17.5 20.6606V20.6559L15.5412 17.2649C14.6452 17.7846 13.6083 18.0871 12.5001 18.0871Z" fill="#12B347"/>
<path d="M17.5 20.6606V20.6559L15.5411 17.2649C14.6451 17.7845 13.6083 18.087 12.5 18.087V22.0001C14.3139 22.0001 16.0256 21.5117 17.5 20.6606Z" fill="#0F993E"/>
<path d="M6.41305 12C6.41305 10.8918 6.71547 9.85507 7.23504 8.95909L3.84418 7.00464C2.98836 8.47444 2.5 10.1814 2.5 12C2.5 13.8186 2.98836 15.5255 3.84418 16.9953L7.23504 15.0409C6.71547 14.1449 6.41305 13.1082 6.41305 12Z" fill="#FFD500"/>
<path d="M12.5001 5.91305C13.9661 5.91305 15.3128 6.43398 16.3646 7.30051C16.6241 7.51426 17.0012 7.49883 17.2389 7.26113L19.0854 5.41465C19.3551 5.14496 19.3359 4.70352 19.0478 4.45359C17.2855 2.92473 14.9925 2 12.5001 2C8.80241 2 5.56983 4.01395 3.84424 7.00465L7.2351 8.9591C8.2892 7.14141 10.2519 5.91305 12.5001 5.91305Z" fill="#FF4B26"/>
<path d="M16.3645 7.30051C16.624 7.51426 17.0012 7.49883 17.2389 7.26113L19.0854 5.41465C19.355 5.14496 19.3358 4.70352 19.0477 4.45359C17.2854 2.92469 14.9925 2 12.5 2V5.91305C13.966 5.91305 15.3127 6.43398 16.3645 7.30051Z" fill="#D93F21"/>
</svg>
